<?xml version="1.0" encoding="iso-8859-1"?>
<!-- Generator: Adobe Illustrator 16.0.0, SVG Export Plug-In . SVG Version: 6.00 Build 0)  -->
<!DOCTYPE svg PUBLIC "-//W3C//DTD SVG 1.1//EN" "http://www.w3.org/Graphics/SVG/1.1/DTD/svg11.dtd">
<svg xmlns="http://www.w3.org/2000/svg" xmlns:xlink="http://www.w3.org/1999/xlink" version="1.1" id="Capa_1" x="0px" y="0px" width="512px" height="512px" viewBox="0 0 896.002 896.002" style="enable-background:new 0 0 896.002 896.002;" xml:space="preserve">
<g>
	<g>
		<path d="M830.926,209.454L684.361,356.017c-14.766,14.656-14.766,59.5,0,74.266l146.564,146.455    c14.654,14.768,65.076,14.768,65.076-15.859V225.315C896.004,194.798,845.582,194.798,830.926,209.454z" fill="#FFFFFF"/>
		<path d="M448,0.001H112H0v112V164.5v434.001v73.5l336,224v-112h112c61.792,0,112-50.203,112-112v-560    C560,50.095,509.789,0.001,448,0.001z M447.956,672.003h-112v-448l-168-112.002h280V672.003z" fill="#FFFFFF"/>
	</g>
</g>
<g>
</g>
<g>
</g>
<g>
</g>
<g>
</g>
<g>
</g>
<g>
</g>
<g>
</g>
<g>
</g>
<g>
</g>
<g>
</g>
<g>
</g>
<g>
</g>
<g>
</g>
<g>
</g>
<g>
</g>
</svg>
